<svg width="40" height="51" viewBox="0 0 40 51" fill="none" xmlns="http://www.w3.org/2000/svg">
<path d="M19.167 38.1066V48.2612C19.167 49.4857 20.3346 50.4782 21.7751 50.4782C23.2152 50.4782 24.3833 49.4857 24.3833 48.2612V37.2775C22.8701 37.2613 21.5085 37.1622 20.3027 37.0153C20.0992 37.4924 19.6917 37.8807 19.167 38.1066Z" fill="black"/>
<path d="M25.2529 48.2612C25.2529 49.4858 26.42 50.4782 27.8611 50.4782C29.3006 50.4782 30.4692 49.4858 30.4692 48.2612V36.8568C29.0042 37.0878 27.2623 37.256 25.2529 37.2776V48.2612Z" fill="black"/>
<path d="M23.5462 9.40778C26.5619 10.0045 29.5755 8.41059 30.2775 5.84724C30.9794 3.28389 29.1043 0.722261 26.0892 0.125146C23.0735 -0.471525 20.0598 1.12278 19.3574 3.68571C18.6549 6.24906 20.5305 8.81111 23.5462 9.40778Z" fill="black"/>
<path d="M36.624 28.4714C36.7462 29.2602 37.5977 29.8155 38.5258 29.7117C39.4539 29.6077 40.108 28.884 39.9853 28.0945C38.7828 20.3489 36.3091 16.0971 33.9246 13.7345C31.7217 11.5426 29.6021 11.0698 29.0404 10.9938C28.5517 10.8913 26.7629 10.534 24.8185 10.5286C22.8738 10.534 21.0853 10.8911 20.5963 10.9938C20.0347 11.0697 17.9153 11.5424 15.7119 13.7345C15.1857 14.256 14.6549 14.8698 14.1348 15.5926C15.1228 16.4882 15.7297 17.6912 15.7297 19.0132C15.7297 19.101 15.7249 19.1883 15.7193 19.2754C16.4765 17.7725 17.2704 16.6854 18.0011 15.9046L15.9689 24.3941C16.5817 24.7101 17.2745 25.1991 17.9158 25.9607C19.6269 27.9746 20.4608 31.0274 20.4644 35.2905C20.4636 35.6443 20.4578 36.0069 20.4458 36.3804C20.4458 36.3824 20.4453 36.3845 20.4453 36.3866C21.7313 36.5377 23.1902 36.6348 24.8182 36.6348C31.4077 36.6348 35.2322 35.0479 35.9813 34.7053C36.072 34.6639 36.1204 34.6395 36.1204 34.6395L31.6369 15.9081C31.6577 15.9303 31.6779 15.9499 31.699 15.9726C33.4506 17.8764 35.5506 21.5491 36.624 28.4714Z" fill="black"/>
<path d="M4.35352 48.4366C4.35352 49.5321 5.39881 50.4206 6.6881 50.4206C7.97689 50.4206 9.02221 49.5321 9.02221 48.4366V39.5787H10.6604V48.4366C10.6604 49.5321 11.7052 50.4206 12.9945 50.4206C14.2838 50.4206 15.3286 49.5321 15.3286 48.4366V36.3213H4.35352V48.4366Z" fill="black"/>
<path d="M19.6808 35.2907C19.6778 30.565 18.6034 27.9066 17.279 26.3476C16.0259 24.86 14.5445 24.5292 14.1268 24.4902C14.0433 24.4774 13.9572 24.4697 13.869 24.4697H12.3734C11.9211 25.1549 10.9583 25.6294 9.84068 25.6294C8.72303 25.6294 7.76026 25.1549 7.30791 24.4697H5.81179C5.72366 24.4697 5.63759 24.4774 5.55353 24.4902C5.13532 24.5296 3.65446 24.8609 2.40184 26.3478C1.0779 27.9066 0.00305154 30.5652 0 35.291C0 35.6363 0.00560752 35.9948 0.0183353 36.3663C0.0427997 37.0872 0.737611 37.6577 1.58119 37.6577C1.597 37.6577 1.61228 37.6575 1.62806 37.6573C2.49201 37.6361 3.17206 37.0234 3.1471 36.289C3.13539 35.9448 3.12978 35.6122 3.12978 35.291C3.12775 31.941 3.72426 29.9356 4.35287 28.7715V35.4345H15.328V28.7724C15.9566 29.9332 16.5531 31.9439 16.5511 35.2907C16.5511 35.6111 16.545 35.9448 16.5348 36.2918C16.5113 37.0264 17.1929 37.6374 18.0574 37.6573C18.0711 37.6577 18.0854 37.6577 18.0996 37.6577C18.9447 37.6579 19.6406 37.0855 19.663 36.3631C19.6747 35.9948 19.6803 35.6378 19.6808 35.2907Z" fill="black"/>
<path d="M12.4045 22.7625C13.9235 22.0104 14.9469 20.6149 14.9469 19.013C14.9469 16.6159 12.6607 14.6726 9.84064 14.6726C7.02057 14.6726 4.73438 16.6159 4.73438 19.013C4.73438 20.6149 5.75826 22.0104 7.27732 22.7625C8.03123 23.1358 8.90535 23.3534 9.84064 23.3534C10.7764 23.3534 11.6505 23.136 12.4045 22.7625Z" fill="black"/>
</svg>
