<svg width="40" height="51" viewBox="0 0 40 51" fill="none" xmlns="http://www.w3.org/2000/svg">
<path d="M19.168 38.1066V48.2612C19.168 49.4857 20.3355 50.4782 21.7761 50.4782C23.2163 50.4782 24.3843 49.4857 24.3843 48.2612V37.2775C22.8711 37.2613 21.5095 37.1622 20.3037 37.0153C20.1002 37.4924 19.6927 37.8807 19.168 38.1066Z" fill="white"/>
<path d="M25.2529 48.2612C25.2529 49.4858 26.42 50.4782 27.8611 50.4782C29.3007 50.4782 30.4693 49.4858 30.4693 48.2612V36.8568C29.0042 37.0878 27.2623 37.256 25.2529 37.2776V48.2612Z" fill="white"/>
<path d="M23.5463 9.40778C26.562 10.0045 29.5756 8.41059 30.2776 5.84724C30.9796 3.28389 29.1044 0.722261 26.0892 0.125146C23.0735 -0.471525 20.0599 1.12278 19.3574 3.68571C18.6549 6.24906 20.5306 8.81111 23.5463 9.40778Z" fill="white"/>
<path d="M36.6242 28.4714C36.7464 29.2602 37.5979 29.8155 38.5261 29.7117C39.4542 29.6077 40.1083 28.884 39.9855 28.0945C38.7831 20.3489 36.3094 16.0971 33.9248 13.7345C31.7219 11.5426 29.6022 11.0698 29.0406 10.9938C28.5518 10.8913 26.763 10.534 24.8186 10.5286C22.8739 10.534 21.0854 10.8911 20.5964 10.9938C20.0347 11.0697 17.9153 11.5424 15.7119 13.7345C15.1857 14.256 14.6549 14.8698 14.1348 15.5926C15.1228 16.4882 15.7297 17.6912 15.7297 19.0132C15.7297 19.101 15.7249 19.1883 15.7193 19.2754C16.4765 17.7725 17.2704 16.6854 18.0012 15.9046L15.9689 24.3941C16.5817 24.7101 17.2745 25.1991 17.9159 25.9607C19.627 27.9746 20.4609 31.0274 20.4644 35.2905C20.4637 35.6443 20.4578 36.0069 20.4458 36.3804C20.4458 36.3824 20.4453 36.3845 20.4453 36.3866C21.7313 36.5377 23.1903 36.6348 24.8184 36.6348C31.4078 36.6348 35.2325 35.0479 35.9816 34.7053C36.0722 34.6639 36.1206 34.6395 36.1206 34.6395L31.6371 15.9081C31.6579 15.9303 31.6781 15.9499 31.6992 15.9726C33.4508 17.8764 35.5508 21.5491 36.6242 28.4714Z" fill="white"/>
<path d="M4.35352 48.4366C4.35352 49.5321 5.39882 50.4206 6.68812 50.4206C7.97693 50.4206 9.02226 49.5321 9.02226 48.4366V39.5787H10.6605V48.4366C10.6605 49.5321 11.7053 50.4206 12.9946 50.4206C14.2839 50.4206 15.3287 49.5321 15.3287 48.4366V36.3213H4.35352V48.4366Z" fill="white"/>
<path d="M19.681 35.2907C19.678 30.565 18.6036 27.9066 17.2792 26.3476C16.026 24.86 14.5447 24.5292 14.127 24.4902C14.0434 24.4774 13.9573 24.4697 13.8692 24.4697H12.3736C11.9212 25.1549 10.9584 25.6294 9.84078 25.6294C8.72313 25.6294 7.76035 25.1549 7.30798 24.4697H5.81185C5.72372 24.4697 5.63765 24.4774 5.55359 24.4902C5.13537 24.5296 3.6545 24.8609 2.40187 26.3478C1.07791 27.9066 0.00305157 30.5652 0 35.291C0 35.6363 0.00560758 35.9948 0.0183355 36.3663C0.0428002 37.0872 0.737619 37.6577 1.58121 37.6577C1.59701 37.6577 1.6123 37.6575 1.62808 37.6573C2.49204 37.6361 3.17209 37.0234 3.14713 36.289C3.13542 35.9448 3.12981 35.6122 3.12981 35.291C3.12778 31.941 3.72429 29.9356 4.35292 28.7715V35.4345H15.3281V28.7724C15.9568 29.9332 16.5533 31.9439 16.5512 35.2907C16.5512 35.6111 16.5451 35.9448 16.5349 36.2918C16.5115 37.0264 17.1931 37.6374 18.0576 37.6573C18.0713 37.6577 18.0856 37.6577 18.0998 37.6577C18.9449 37.6579 19.6408 37.0855 19.6632 36.3631C19.6749 35.9948 19.6805 35.6378 19.681 35.2907Z" fill="white"/>
<path d="M12.4046 22.7625C13.9236 22.0104 14.947 20.6149 14.947 19.013C14.947 16.6159 12.6608 14.6726 9.84069 14.6726C7.0206 14.6726 4.73438 16.6159 4.73438 19.013C4.73438 20.6149 5.75827 22.0104 7.27735 22.7625C8.03127 23.1358 8.9054 23.3534 9.84069 23.3534C10.7765 23.3534 11.6506 23.136 12.4046 22.7625Z" fill="white"/>
</svg>
